<svg width="314" height="241" viewBox="0 0 314 241" fill="none" xmlns="http://www.w3.org/2000/svg">
<rect width="314" height="240" fill="#151515"/>
<rect width="314" height="240.485" fill="#151515"/>
<rect x="0.5" y="0.5" width="313" height="239.485" fill="#151515"/>
<rect x="0.5" y="0.5" width="313" height="239" fill="#151515"/>
<g opacity="0.4">
<rect x="1.13766" y="1.13768" width="311.725" height="47.5449" fill="#06060A"/>
<rect x="1.13766" y="48.6826" width="311.725" height="47.5449" fill="#151515"/>
<rect x="1.13766" y="96.2275" width="311.725" height="47.5449" fill="#06060A"/>
<rect x="1.13766" y="143.772" width="311.725" height="47.5449" fill="#151515"/>
<rect x="1.13766" y="191.317" width="311.725" height="47.5449" fill="#06060A"/>
</g>
<path d="M203.961 8.18408e-06C203.961 25.851 182.936 46.8074 157 46.8074C131.064 46.8074 110.039 25.851 110.039 0" stroke="#5A5A5A" stroke-width="1.13768"/>
<path d="M51.7642 160.568V159.999H51.1953V160.568H51.7642ZM262.235 160.568H262.804V159.999H262.235V160.568ZM51.7642 161.137H262.235V159.999H51.7642V161.137ZM261.666 160.568V240.206H262.804V160.568H261.666ZM52.333 240.206V160.568H51.1953V240.206H52.333Z" fill="#5A5A5A"/>
<path d="M109.217 208.345V207.776H108.648V208.345H109.217ZM204.783 208.345H205.351V207.776H204.783V208.345ZM109.217 208.914H204.783V207.776H109.217V208.914ZM204.214 208.345V240.2H205.351V208.345H204.214ZM109.786 240.2V208.345H108.648V240.2H109.786Z" fill="#5A5A5A"/>
<ellipse cx="156.812" cy="186.113" rx="2.08715" ry="2.08033" fill="#5A5A5A" stroke="#5A5A5A" stroke-width="0.568841"/>
<g filter="url(#filter0_d_401_9)">
<path d="M116.123 160.774C124.06 146.384 139.414 136.631 157.054 136.631C174.694 136.631 190.048 146.384 197.985 160.774H198.634C190.644 146.058 175.02 136.062 157.054 136.062C139.088 136.062 123.464 146.058 115.474 160.774H116.123Z" fill="#5A5A5A"/>
<path d="M116.123 160.774C124.06 146.384 139.414 136.631 157.054 136.631C174.694 136.631 190.048 146.384 197.985 160.774H198.634C190.644 146.058 175.02 136.062 157.054 136.062C139.088 136.062 123.464 146.058 115.474 160.774H116.123Z" stroke="#5A5A5A" stroke-width="0.568841"/>
</g>
<rect x="0.5" y="0.5" width="313" height="239" stroke="#5A5A5A"/>
<rect x="0.5" y="0.5" width="313" height="239.485" stroke="#8D8D8D"/>
<defs>
<filter id="filter0_d_401_9" x="112.721" y="135.778" width="88.6662" height="29.8319" filterUnits="userSpaceOnUse" color-interpolation-filters="sRGB">
<feFlood flood-opacity="0" result="BackgroundImageFix"/>
<feColorMatrix in="SourceAlpha" type="matrix" values="0 0 0 0 0 0 0 0 0 0 0 0 0 0 0 0 0 0 127 0" result="hardAlpha"/>
<feOffset dy="2.27536"/>
<feGaussianBlur stdDeviation="1.13768"/>
<feComposite in2="hardAlpha" operator="out"/>
<feColorMatrix type="matrix" values="0 0 0 0 0 0 0 0 0 0 0 0 0 0 0 0 0 0 0.25 0"/>
<feBlend mode="normal" in2="BackgroundImageFix" result="effect1_dropShadow_401_9"/>
<feBlend mode="normal" in="SourceGraphic" in2="effect1_dropShadow_401_9" result="shape"/>
</filter>
</defs>
</svg>
